<mxfile host="app.diagrams.net" agent="Mozilla/5.0 (Windows NT 10.0; Win64; x64) AppleWebKit/537.36 (KHTML, like Gecko) Chrome/126.0.0.0 Safari/537.36" version="24.7.13">
  <diagram name="Page-1" id="oKhglErTEOPuvw9PK9cy">
    <mxGraphModel dx="1434" dy="772" grid="1" gridSize="10" guides="1" tooltips="1" connect="1" arrows="1" fold="1" page="1" pageScale="1" pageWidth="850" pageHeight="1100" math="0" shadow="0">
      <root>
        <mxCell id="0" />
        <mxCell id="1" parent="0" />
        <mxCell id="5ox-4gIst8hF2KvSlbyN-1" value="User" style="html=1;dashed=0;whiteSpace=wrap;" vertex="1" parent="1">
          <mxGeometry x="800" y="510" width="60" height="40" as="geometry" />
        </mxCell>
        <mxCell id="5ox-4gIst8hF2KvSlbyN-2" value="id" style="ellipse;whiteSpace=wrap;html=1;align=center;" vertex="1" parent="1">
          <mxGeometry x="720" y="425" width="60" height="30" as="geometry" />
        </mxCell>
        <mxCell id="5ox-4gIst8hF2KvSlbyN-3" value="UserName" style="ellipse;whiteSpace=wrap;html=1;align=center;" vertex="1" parent="1">
          <mxGeometry x="820" y="415" width="70" height="40" as="geometry" />
        </mxCell>
        <mxCell id="5ox-4gIst8hF2KvSlbyN-4" value="pwd" style="ellipse;whiteSpace=wrap;html=1;align=center;" vertex="1" parent="1">
          <mxGeometry x="900" y="445" width="60" height="40" as="geometry" />
        </mxCell>
        <mxCell id="5ox-4gIst8hF2KvSlbyN-5" value="E-mail" style="ellipse;whiteSpace=wrap;html=1;align=center;" vertex="1" parent="1">
          <mxGeometry x="910" y="495" width="60" height="40" as="geometry" />
        </mxCell>
        <mxCell id="5ox-4gIst8hF2KvSlbyN-6" value="Role" style="ellipse;whiteSpace=wrap;html=1;align=center;" vertex="1" parent="1">
          <mxGeometry x="900" y="555" width="60" height="40" as="geometry" />
        </mxCell>
        <mxCell id="5ox-4gIst8hF2KvSlbyN-7" value="Created At" style="ellipse;whiteSpace=wrap;html=1;align=center;" vertex="1" parent="1">
          <mxGeometry x="870" y="605" width="70" height="40" as="geometry" />
        </mxCell>
        <mxCell id="5ox-4gIst8hF2KvSlbyN-8" value="Last Login" style="ellipse;whiteSpace=wrap;html=1;align=center;" vertex="1" parent="1">
          <mxGeometry x="710" y="565" width="70" height="40" as="geometry" />
        </mxCell>
        <mxCell id="5ox-4gIst8hF2KvSlbyN-10" value="" style="endArrow=none;html=1;rounded=0;exitX=0.5;exitY=1;exitDx=0;exitDy=0;entryX=0;entryY=0.5;entryDx=0;entryDy=0;" edge="1" parent="1" source="5ox-4gIst8hF2KvSlbyN-2" target="5ox-4gIst8hF2KvSlbyN-1">
          <mxGeometry width="50" height="50" relative="1" as="geometry">
            <mxPoint x="1130" y="595" as="sourcePoint" />
            <mxPoint x="1180" y="545" as="targetPoint" />
          </mxGeometry>
        </mxCell>
        <mxCell id="5ox-4gIst8hF2KvSlbyN-11" value="" style="endArrow=none;html=1;rounded=0;exitX=0.5;exitY=1;exitDx=0;exitDy=0;entryX=0.25;entryY=0;entryDx=0;entryDy=0;" edge="1" parent="1" source="5ox-4gIst8hF2KvSlbyN-3" target="5ox-4gIst8hF2KvSlbyN-1">
          <mxGeometry width="50" height="50" relative="1" as="geometry">
            <mxPoint x="760" y="465" as="sourcePoint" />
            <mxPoint x="810" y="535" as="targetPoint" />
          </mxGeometry>
        </mxCell>
        <mxCell id="5ox-4gIst8hF2KvSlbyN-12" value="" style="endArrow=none;html=1;rounded=0;exitX=0;exitY=1;exitDx=0;exitDy=0;entryX=0.75;entryY=0;entryDx=0;entryDy=0;" edge="1" parent="1" source="5ox-4gIst8hF2KvSlbyN-4" target="5ox-4gIst8hF2KvSlbyN-1">
          <mxGeometry width="50" height="50" relative="1" as="geometry">
            <mxPoint x="865" y="465" as="sourcePoint" />
            <mxPoint x="825" y="515" as="targetPoint" />
          </mxGeometry>
        </mxCell>
        <mxCell id="5ox-4gIst8hF2KvSlbyN-13" value="" style="endArrow=none;html=1;rounded=0;exitX=0;exitY=0.5;exitDx=0;exitDy=0;entryX=1;entryY=0.25;entryDx=0;entryDy=0;" edge="1" parent="1" source="5ox-4gIst8hF2KvSlbyN-5" target="5ox-4gIst8hF2KvSlbyN-1">
          <mxGeometry width="50" height="50" relative="1" as="geometry">
            <mxPoint x="919" y="489" as="sourcePoint" />
            <mxPoint x="855" y="515" as="targetPoint" />
          </mxGeometry>
        </mxCell>
        <mxCell id="5ox-4gIst8hF2KvSlbyN-14" value="" style="endArrow=none;html=1;rounded=0;exitX=0;exitY=0;exitDx=0;exitDy=0;entryX=1;entryY=0.5;entryDx=0;entryDy=0;" edge="1" parent="1" source="5ox-4gIst8hF2KvSlbyN-6" target="5ox-4gIst8hF2KvSlbyN-1">
          <mxGeometry width="50" height="50" relative="1" as="geometry">
            <mxPoint x="920" y="525" as="sourcePoint" />
            <mxPoint x="870" y="525" as="targetPoint" />
          </mxGeometry>
        </mxCell>
        <mxCell id="5ox-4gIst8hF2KvSlbyN-15" value="" style="endArrow=none;html=1;rounded=0;exitX=0;exitY=0;exitDx=0;exitDy=0;entryX=0.75;entryY=1;entryDx=0;entryDy=0;" edge="1" parent="1" source="5ox-4gIst8hF2KvSlbyN-7" target="5ox-4gIst8hF2KvSlbyN-1">
          <mxGeometry width="50" height="50" relative="1" as="geometry">
            <mxPoint x="919" y="571" as="sourcePoint" />
            <mxPoint x="870" y="535" as="targetPoint" />
          </mxGeometry>
        </mxCell>
        <mxCell id="5ox-4gIst8hF2KvSlbyN-16" value="" style="endArrow=none;html=1;rounded=0;exitX=1;exitY=0.5;exitDx=0;exitDy=0;entryX=0.25;entryY=1;entryDx=0;entryDy=0;" edge="1" parent="1" source="5ox-4gIst8hF2KvSlbyN-8" target="5ox-4gIst8hF2KvSlbyN-1">
          <mxGeometry width="50" height="50" relative="1" as="geometry">
            <mxPoint x="890" y="621" as="sourcePoint" />
            <mxPoint x="870" y="555" as="targetPoint" />
          </mxGeometry>
        </mxCell>
        <mxCell id="5ox-4gIst8hF2KvSlbyN-17" value="Device" style="html=1;dashed=0;whiteSpace=wrap;" vertex="1" parent="1">
          <mxGeometry x="295" y="340" width="60" height="40" as="geometry" />
        </mxCell>
        <mxCell id="5ox-4gIst8hF2KvSlbyN-18" value="ISA" style="triangle;whiteSpace=wrap;html=1;direction=west;rotation=90;" vertex="1" parent="1">
          <mxGeometry x="310" y="430" width="30" height="40" as="geometry" />
        </mxCell>
        <mxCell id="5ox-4gIst8hF2KvSlbyN-19" value="Sensor" style="html=1;dashed=0;whiteSpace=wrap;" vertex="1" parent="1">
          <mxGeometry x="215" y="510" width="60" height="40" as="geometry" />
        </mxCell>
        <mxCell id="5ox-4gIst8hF2KvSlbyN-20" value="Actuator" style="html=1;dashed=0;whiteSpace=wrap;" vertex="1" parent="1">
          <mxGeometry x="405" y="500" width="60" height="40" as="geometry" />
        </mxCell>
        <mxCell id="5ox-4gIst8hF2KvSlbyN-21" value="id" style="ellipse;whiteSpace=wrap;html=1;align=center;" vertex="1" parent="1">
          <mxGeometry x="225" y="290" width="60" height="30" as="geometry" />
        </mxCell>
        <mxCell id="5ox-4gIst8hF2KvSlbyN-22" value="name" style="ellipse;whiteSpace=wrap;html=1;align=center;" vertex="1" parent="1">
          <mxGeometry x="310" y="260" width="60" height="30" as="geometry" />
        </mxCell>
        <mxCell id="5ox-4gIst8hF2KvSlbyN-23" value="Location" style="ellipse;whiteSpace=wrap;html=1;align=center;" vertex="1" parent="1">
          <mxGeometry x="385" y="280" width="60" height="30" as="geometry" />
        </mxCell>
        <mxCell id="5ox-4gIst8hF2KvSlbyN-24" value="CreatedAt" style="ellipse;whiteSpace=wrap;html=1;align=center;" vertex="1" parent="1">
          <mxGeometry x="405" y="335" width="70" height="30" as="geometry" />
        </mxCell>
        <mxCell id="5ox-4gIst8hF2KvSlbyN-26" value="Values" style="ellipse;whiteSpace=wrap;html=1;align=center;" vertex="1" parent="1">
          <mxGeometry x="120" y="520" width="55" height="30" as="geometry" />
        </mxCell>
        <mxCell id="5ox-4gIst8hF2KvSlbyN-27" value="Type&lt;div&gt;(temp., humi.)&lt;/div&gt;" style="ellipse;whiteSpace=wrap;html=1;align=center;" vertex="1" parent="1">
          <mxGeometry x="145" y="575" width="90" height="45" as="geometry" />
        </mxCell>
        <mxCell id="5ox-4gIst8hF2KvSlbyN-28" value="timeStamp" style="ellipse;whiteSpace=wrap;html=1;align=center;" vertex="1" parent="1">
          <mxGeometry x="255" y="605" width="70" height="30" as="geometry" />
        </mxCell>
        <mxCell id="5ox-4gIst8hF2KvSlbyN-29" value="status" style="ellipse;whiteSpace=wrap;html=1;align=center;" vertex="1" parent="1">
          <mxGeometry x="485" y="540" width="55" height="30" as="geometry" />
        </mxCell>
        <mxCell id="5ox-4gIst8hF2KvSlbyN-30" value="timeStamp" style="ellipse;whiteSpace=wrap;html=1;align=center;" vertex="1" parent="1">
          <mxGeometry x="395" y="590" width="70" height="30" as="geometry" />
        </mxCell>
        <mxCell id="5ox-4gIst8hF2KvSlbyN-31" value="" style="endArrow=none;html=1;rounded=0;exitX=0;exitY=0.25;exitDx=0;exitDy=0;entryX=0.5;entryY=1;entryDx=0;entryDy=0;" edge="1" parent="1" source="5ox-4gIst8hF2KvSlbyN-17" target="5ox-4gIst8hF2KvSlbyN-21">
          <mxGeometry width="50" height="50" relative="1" as="geometry">
            <mxPoint x="250" y="376" as="sourcePoint" />
            <mxPoint x="215" y="310" as="targetPoint" />
          </mxGeometry>
        </mxCell>
        <mxCell id="5ox-4gIst8hF2KvSlbyN-32" value="" style="endArrow=none;html=1;rounded=0;exitX=0.5;exitY=0;exitDx=0;exitDy=0;entryX=0.5;entryY=1;entryDx=0;entryDy=0;" edge="1" parent="1" source="5ox-4gIst8hF2KvSlbyN-17" target="5ox-4gIst8hF2KvSlbyN-22">
          <mxGeometry width="50" height="50" relative="1" as="geometry">
            <mxPoint x="305" y="360" as="sourcePoint" />
            <mxPoint x="265" y="330" as="targetPoint" />
          </mxGeometry>
        </mxCell>
        <mxCell id="5ox-4gIst8hF2KvSlbyN-33" value="" style="endArrow=none;html=1;rounded=0;exitX=1;exitY=0;exitDx=0;exitDy=0;entryX=0;entryY=1;entryDx=0;entryDy=0;" edge="1" parent="1" source="5ox-4gIst8hF2KvSlbyN-17" target="5ox-4gIst8hF2KvSlbyN-23">
          <mxGeometry width="50" height="50" relative="1" as="geometry">
            <mxPoint x="335" y="350" as="sourcePoint" />
            <mxPoint x="350" y="300" as="targetPoint" />
          </mxGeometry>
        </mxCell>
        <mxCell id="5ox-4gIst8hF2KvSlbyN-34" value="" style="endArrow=none;html=1;rounded=0;exitX=1;exitY=0.25;exitDx=0;exitDy=0;" edge="1" parent="1" source="5ox-4gIst8hF2KvSlbyN-17">
          <mxGeometry width="50" height="50" relative="1" as="geometry">
            <mxPoint x="365" y="350" as="sourcePoint" />
            <mxPoint x="404" y="350" as="targetPoint" />
          </mxGeometry>
        </mxCell>
        <mxCell id="5ox-4gIst8hF2KvSlbyN-35" value="" style="endArrow=none;html=1;rounded=0;exitX=0.015;exitY=0.982;exitDx=0;exitDy=0;exitPerimeter=0;entryX=0;entryY=0;entryDx=0;entryDy=0;" edge="1" parent="1" source="5ox-4gIst8hF2KvSlbyN-18" target="5ox-4gIst8hF2KvSlbyN-20">
          <mxGeometry width="50" height="50" relative="1" as="geometry">
            <mxPoint x="365" y="360" as="sourcePoint" />
            <mxPoint x="414" y="360" as="targetPoint" />
          </mxGeometry>
        </mxCell>
        <mxCell id="5ox-4gIst8hF2KvSlbyN-36" value="" style="endArrow=none;html=1;rounded=0;exitX=-0.054;exitY=0.154;exitDx=0;exitDy=0;exitPerimeter=0;entryX=0.75;entryY=0;entryDx=0;entryDy=0;" edge="1" parent="1" source="5ox-4gIst8hF2KvSlbyN-18" target="5ox-4gIst8hF2KvSlbyN-19">
          <mxGeometry width="50" height="50" relative="1" as="geometry">
            <mxPoint x="354" y="475" as="sourcePoint" />
            <mxPoint x="415" y="510" as="targetPoint" />
          </mxGeometry>
        </mxCell>
        <mxCell id="5ox-4gIst8hF2KvSlbyN-37" value="" style="endArrow=none;html=1;rounded=0;exitX=0.5;exitY=1;exitDx=0;exitDy=0;entryX=1;entryY=0.5;entryDx=0;entryDy=0;" edge="1" parent="1" source="5ox-4gIst8hF2KvSlbyN-17" target="5ox-4gIst8hF2KvSlbyN-18">
          <mxGeometry width="50" height="50" relative="1" as="geometry">
            <mxPoint x="315" y="470" as="sourcePoint" />
            <mxPoint x="270" y="520" as="targetPoint" />
          </mxGeometry>
        </mxCell>
        <mxCell id="5ox-4gIst8hF2KvSlbyN-38" value="" style="endArrow=none;html=1;rounded=0;exitX=1;exitY=0;exitDx=0;exitDy=0;entryX=0;entryY=0.25;entryDx=0;entryDy=0;" edge="1" parent="1" source="5ox-4gIst8hF2KvSlbyN-26" target="5ox-4gIst8hF2KvSlbyN-19">
          <mxGeometry width="50" height="50" relative="1" as="geometry">
            <mxPoint x="335" y="390" as="sourcePoint" />
            <mxPoint x="335" y="445" as="targetPoint" />
          </mxGeometry>
        </mxCell>
        <mxCell id="5ox-4gIst8hF2KvSlbyN-39" value="" style="endArrow=none;html=1;rounded=0;exitX=0.5;exitY=0;exitDx=0;exitDy=0;entryX=0;entryY=1;entryDx=0;entryDy=0;" edge="1" parent="1" source="5ox-4gIst8hF2KvSlbyN-27" target="5ox-4gIst8hF2KvSlbyN-19">
          <mxGeometry width="50" height="50" relative="1" as="geometry">
            <mxPoint x="177" y="534" as="sourcePoint" />
            <mxPoint x="225" y="530" as="targetPoint" />
          </mxGeometry>
        </mxCell>
        <mxCell id="5ox-4gIst8hF2KvSlbyN-40" value="" style="endArrow=none;html=1;rounded=0;exitX=0.5;exitY=0;exitDx=0;exitDy=0;entryX=0.5;entryY=1;entryDx=0;entryDy=0;" edge="1" parent="1" source="5ox-4gIst8hF2KvSlbyN-28" target="5ox-4gIst8hF2KvSlbyN-19">
          <mxGeometry width="50" height="50" relative="1" as="geometry">
            <mxPoint x="200" y="585" as="sourcePoint" />
            <mxPoint x="225" y="560" as="targetPoint" />
          </mxGeometry>
        </mxCell>
        <mxCell id="5ox-4gIst8hF2KvSlbyN-41" value="" style="endArrow=none;html=1;rounded=0;exitX=0.429;exitY=0;exitDx=0;exitDy=0;entryX=0.5;entryY=1;entryDx=0;entryDy=0;exitPerimeter=0;" edge="1" parent="1" source="5ox-4gIst8hF2KvSlbyN-30" target="5ox-4gIst8hF2KvSlbyN-20">
          <mxGeometry width="50" height="50" relative="1" as="geometry">
            <mxPoint x="300" y="615" as="sourcePoint" />
            <mxPoint x="255" y="560" as="targetPoint" />
          </mxGeometry>
        </mxCell>
        <mxCell id="5ox-4gIst8hF2KvSlbyN-42" value="" style="endArrow=none;html=1;rounded=0;exitX=0;exitY=0.5;exitDx=0;exitDy=0;entryX=1;entryY=1;entryDx=0;entryDy=0;" edge="1" parent="1" source="5ox-4gIst8hF2KvSlbyN-29" target="5ox-4gIst8hF2KvSlbyN-20">
          <mxGeometry width="50" height="50" relative="1" as="geometry">
            <mxPoint x="435" y="600" as="sourcePoint" />
            <mxPoint x="445" y="550" as="targetPoint" />
          </mxGeometry>
        </mxCell>
        <mxCell id="5ox-4gIst8hF2KvSlbyN-43" value="Action" style="html=1;whiteSpace=wrap;aspect=fixed;shape=isoRectangle;" vertex="1" parent="1">
          <mxGeometry x="580" y="490" width="83.34" height="50" as="geometry" />
        </mxCell>
        <mxCell id="5ox-4gIst8hF2KvSlbyN-44" value="" style="endArrow=none;html=1;rounded=0;exitX=1;exitY=0.5;exitDx=0;exitDy=0;entryX=0.012;entryY=0.52;entryDx=0;entryDy=0;entryPerimeter=0;" edge="1" parent="1" source="5ox-4gIst8hF2KvSlbyN-20" target="5ox-4gIst8hF2KvSlbyN-43">
          <mxGeometry width="50" height="50" relative="1" as="geometry">
            <mxPoint x="354" y="475" as="sourcePoint" />
            <mxPoint x="415" y="510" as="targetPoint" />
          </mxGeometry>
        </mxCell>
        <mxCell id="5ox-4gIst8hF2KvSlbyN-45" value="" style="endArrow=none;html=1;rounded=0;exitX=1.008;exitY=0.56;exitDx=0;exitDy=0;entryX=0;entryY=0.5;entryDx=0;entryDy=0;exitPerimeter=0;" edge="1" parent="1" source="5ox-4gIst8hF2KvSlbyN-43" target="5ox-4gIst8hF2KvSlbyN-1">
          <mxGeometry width="50" height="50" relative="1" as="geometry">
            <mxPoint x="475" y="530" as="sourcePoint" />
            <mxPoint x="591" y="526" as="targetPoint" />
          </mxGeometry>
        </mxCell>
        <mxCell id="5ox-4gIst8hF2KvSlbyN-46" value="Action&lt;div&gt;(on, off)&lt;/div&gt;" style="ellipse;whiteSpace=wrap;html=1;align=center;" vertex="1" parent="1">
          <mxGeometry x="620" y="590" width="55.83" height="35" as="geometry" />
        </mxCell>
        <mxCell id="5ox-4gIst8hF2KvSlbyN-47" value="timeStamp" style="ellipse;whiteSpace=wrap;html=1;align=center;" vertex="1" parent="1">
          <mxGeometry x="530" y="595" width="70" height="30" as="geometry" />
        </mxCell>
        <mxCell id="5ox-4gIst8hF2KvSlbyN-48" value="" style="endArrow=none;html=1;rounded=0;exitX=0.5;exitY=0;exitDx=0;exitDy=0;entryX=0.334;entryY=0.82;entryDx=0;entryDy=0;entryPerimeter=0;" edge="1" parent="1" source="5ox-4gIst8hF2KvSlbyN-47" target="5ox-4gIst8hF2KvSlbyN-43">
          <mxGeometry width="50" height="50" relative="1" as="geometry">
            <mxPoint x="435" y="600" as="sourcePoint" />
            <mxPoint x="445" y="550" as="targetPoint" />
          </mxGeometry>
        </mxCell>
        <mxCell id="5ox-4gIst8hF2KvSlbyN-49" value="" style="endArrow=none;html=1;rounded=0;exitX=0.429;exitY=0.069;exitDx=0;exitDy=0;entryX=0.746;entryY=0.763;entryDx=0;entryDy=0;entryPerimeter=0;exitPerimeter=0;" edge="1" parent="1" source="5ox-4gIst8hF2KvSlbyN-46" target="5ox-4gIst8hF2KvSlbyN-43">
          <mxGeometry width="50" height="50" relative="1" as="geometry">
            <mxPoint x="575" y="605" as="sourcePoint" />
            <mxPoint x="618" y="541" as="targetPoint" />
          </mxGeometry>
        </mxCell>
        <mxCell id="5ox-4gIst8hF2KvSlbyN-50" value="history" style="html=1;dashed=0;whiteSpace=wrap;" vertex="1" parent="1">
          <mxGeometry x="110" y="415" width="60" height="40" as="geometry" />
        </mxCell>
        <mxCell id="5ox-4gIst8hF2KvSlbyN-51" value="" style="endArrow=none;html=1;rounded=0;exitX=0.25;exitY=0;exitDx=0;exitDy=0;entryX=1;entryY=1;entryDx=0;entryDy=0;" edge="1" parent="1" source="5ox-4gIst8hF2KvSlbyN-19" target="5ox-4gIst8hF2KvSlbyN-50">
          <mxGeometry width="50" height="50" relative="1" as="geometry">
            <mxPoint x="300" y="615" as="sourcePoint" />
            <mxPoint x="255" y="560" as="targetPoint" />
          </mxGeometry>
        </mxCell>
        <mxCell id="5ox-4gIst8hF2KvSlbyN-52" value="timeStamp" style="ellipse;whiteSpace=wrap;html=1;align=center;" vertex="1" parent="1">
          <mxGeometry x="30" y="490" width="70" height="30" as="geometry" />
        </mxCell>
        <mxCell id="5ox-4gIst8hF2KvSlbyN-53" value="" style="endArrow=none;html=1;rounded=0;exitX=1;exitY=0;exitDx=0;exitDy=0;entryX=0;entryY=1;entryDx=0;entryDy=0;" edge="1" parent="1" source="5ox-4gIst8hF2KvSlbyN-52" target="5ox-4gIst8hF2KvSlbyN-50">
          <mxGeometry width="50" height="50" relative="1" as="geometry">
            <mxPoint x="177" y="534" as="sourcePoint" />
            <mxPoint x="225" y="530" as="targetPoint" />
          </mxGeometry>
        </mxCell>
        <mxCell id="5ox-4gIst8hF2KvSlbyN-54" value="value" style="ellipse;whiteSpace=wrap;html=1;align=center;" vertex="1" parent="1">
          <mxGeometry x="10" y="415" width="70" height="30" as="geometry" />
        </mxCell>
        <mxCell id="5ox-4gIst8hF2KvSlbyN-55" value="" style="endArrow=none;html=1;rounded=0;exitX=1;exitY=0.5;exitDx=0;exitDy=0;entryX=0;entryY=0.5;entryDx=0;entryDy=0;" edge="1" parent="1" source="5ox-4gIst8hF2KvSlbyN-54" target="5ox-4gIst8hF2KvSlbyN-50">
          <mxGeometry width="50" height="50" relative="1" as="geometry">
            <mxPoint x="41" y="429" as="sourcePoint" />
            <mxPoint x="89" y="425" as="targetPoint" />
          </mxGeometry>
        </mxCell>
      </root>
    </mxGraphModel>
  </diagram>
</mxfile>
